<?xml version="1.0" encoding="utf-8"?>
<!-- Generator: Adobe Illustrator 23.0.0, SVG Export Plug-In . SVG Version: 6.00 Build 0)  -->
<svg version="1.1" id="Layer_1" xmlns="http://www.w3.org/2000/svg" xmlns:xlink="http://www.w3.org/1999/xlink" x="0px" y="0px"
	 viewBox="0 0 512 512" style="enable-background:new 0 0 512 512;" xml:space="preserve">
<style type="text/css">
	.st0{fill:#FDCF39;}
</style>
<g>
	<g>
		<g>
			<path class="st0" d="M512,256C512,114.8,397.2,0,256,0S0,114.8,0,256s114.8,256,256,256S512,397.2,512,256z M240.9,335.1
				L134.3,228.4c-4.2-4.2-6.3-9.6-6.3-15.1c0-5.5,2.1-10.9,6.3-15.1c8.3-8.3,21.8-8.3,30.2,0l91.6,91.6l91.6-91.6
				c8.3-8.3,21.8-8.3,30.2,0c8.3,8.3,8.3,21.8,0,30.2L271.1,335.1C262.7,343.4,249.3,343.4,240.9,335.1z"/>
		</g>
	</g>
</g>
</svg>
